# Blender v3.4.1 OBJ File: 'Block_Bits_Export.blend'
# www.blender.org
mtllib anvil.mtl
o anvil
v -0.900000 -1.000000 -0.900000
v -1.000000 -0.900000 -0.900000
v -0.900000 -0.900000 -1.000000
v -0.970711 -0.970711 -0.900000
v -0.957735 -0.957735 -0.957735
v -0.970711 -0.900000 -0.970711
v -0.900000 -0.970711 -0.970711
v -0.900000 1.000000 -0.900000
v -0.900000 0.900000 -1.000000
v -1.000000 0.900000 -0.900000
v -0.900000 0.970711 -0.970711
v -0.957735 0.957735 -0.957735
v -0.970711 0.900000 -0.970711
v -0.970711 0.970711 -0.900000
v 0.900000 -0.900000 -1.000000
v 1.000000 -0.900000 -0.900000
v 0.900000 -1.000000 -0.900000
v 0.970711 -0.900000 -0.970711
v 0.957735 -0.957735 -0.957735
v 0.970711 -0.970711 -0.900000
v 0.900000 -0.970711 -0.970711
v 0.900000 0.900000 -1.000000
v 0.900000 1.000000 -0.900000
v 1.000000 0.900000 -0.900000
v 0.900000 0.970711 -0.970711
v 0.957735 0.957735 -0.957735
v 0.970711 0.970711 -0.900000
v 0.970711 0.900000 -0.970711
v -0.900000 -0.900000 1.000000
v -1.000000 -0.900000 0.900000
v -0.900000 -1.000000 0.900000
v -0.970711 -0.900000 0.970711
v -0.957735 -0.957735 0.957735
v -0.970711 -0.970711 0.900000
v -0.900000 -0.970711 0.970711
v -0.900000 0.900000 0.900000
v -0.900000 1.000000 0.800000
v -1.000000 0.900000 0.800000
v -0.900000 0.970711 0.870711
v -0.957735 0.957735 0.857735
v -0.970711 0.970711 0.800000
v -0.970711 0.900000 0.870711
v 0.900000 -1.000000 0.900000
v 1.000000 -0.900000 0.900000
v 0.900000 -0.900000 1.000000
v 0.970711 -0.970711 0.900000
v 0.957735 -0.957735 0.957735
v 0.970711 -0.900000 0.970711
v 0.900000 -0.970711 0.970711
v 0.900000 1.000000 0.800000
v 0.900000 0.900000 0.900000
v 1.000000 0.900000 0.800000
v 0.900000 0.970711 0.870711
v 0.957735 0.957735 0.857735
v 0.970711 0.900000 0.870711
v 0.970711 0.970711 0.800000
v -0.784942 0.048550 -0.914251
v -0.914251 0.048550 -0.784942
v -1.000000 0.200000 -0.900000
v -0.900000 0.200000 -1.000000
v -0.853681 0.034933 -0.853681
v -0.936625 0.112426 -0.936625
v -0.974885 0.114220 -0.842471
v -0.970711 0.200000 -0.970711
v -0.842471 0.114220 -0.974885
v 0.914251 0.048550 -0.784942
v 0.784942 0.048550 -0.914251
v 0.900000 0.200000 -1.000000
v 1.000000 0.200000 -0.900000
v 0.853681 0.034933 -0.853681
v 0.936625 0.112426 -0.936625
v 0.842471 0.114220 -0.974885
v 0.970711 0.200000 -0.970711
v 0.974885 0.114220 -0.842471
v 0.914251 0.048550 0.684942
v 1.000000 0.200000 0.800000
v 0.900000 0.215190 0.900000
v 0.784942 0.048550 0.814251
v 0.974885 0.114220 0.742471
v 0.936347 0.114636 0.836625
v 0.970711 0.207595 0.870711
v 0.840202 0.118600 0.874838
v 0.853681 0.034933 0.753681
v -0.914251 0.048550 0.684942
v -0.784942 0.048550 0.814251
v -0.900000 0.215190 0.900000
v -1.000000 0.200000 0.800000
v -0.853681 0.034933 0.753681
v -0.936347 0.114636 0.836625
v -0.840202 0.118600 0.874838
v -0.970711 0.207595 0.870711
v -0.974885 0.114220 0.742471
v 0.900000 -0.700000 -1.000000
v 0.792791 -0.537531 -0.921913
v 0.921913 -0.537531 -0.792791
v 1.000000 -0.700000 -0.900000
v 0.846395 -0.610993 -0.977129
v 0.939385 -0.608896 -0.939385
v 0.863835 -0.521323 -0.863835
v 0.977129 -0.610993 -0.846395
v 0.970711 -0.700000 -0.970711
v 0.900000 -0.700000 1.000000
v 1.000000 -0.700000 0.900000
v 0.921913 -0.537531 0.792791
v 0.792791 -0.537531 0.921913
v 0.970711 -0.700000 0.970711
v 0.939385 -0.608896 0.939384
v 0.977129 -0.610993 0.846395
v 0.863835 -0.521323 0.863835
v 0.846395 -0.610993 0.977129
v -0.900000 -0.700000 1.000000
v -0.792791 -0.537531 0.921913
v -0.921913 -0.537531 0.792791
v -1.000000 -0.700000 0.900000
v -0.846395 -0.610993 0.977129
v -0.939385 -0.608896 0.939385
v -0.863835 -0.521323 0.863835
v -0.977129 -0.610993 0.846395
v -0.970711 -0.700000 0.970711
v -0.900000 -0.700000 -1.000000
v -1.000000 -0.700000 -0.900000
v -0.921913 -0.537531 -0.792791
v -0.792791 -0.537531 -0.921913
v -0.970711 -0.700000 -0.970711
v -0.939385 -0.608896 -0.939384
v -0.977129 -0.610993 -0.846395
v -0.863835 -0.521323 -0.863835
v -0.846395 -0.610993 -0.977129
v -0.370788 -0.200001 -0.500000
v -0.500000 -0.200001 -0.370788
v -0.462155 -0.200001 -0.462155
v 0.500000 0.900000 0.900000
v 0.453163 1.000000 0.800000
v 0.486282 0.970711 0.870711
v 0.431608 0.036677 0.832060
v 0.500000 0.215798 0.900000
v 0.479969 0.115370 0.880101
v 0.000000 1.000000 1.243795
v -0.120674 0.900000 1.255192
v 0.000000 0.801700 1.267800
v 0.120674 0.900000 1.255192
v -0.076247 0.970711 1.262752
v 0.000000 0.936228 1.307837
v -0.071302 0.848216 1.275827
v 0.071302 0.848216 1.275827
v 0.076247 0.970711 1.262752
v 0.500000 0.900000 -1.000000
v 0.500000 1.000000 -0.900000
v 0.500000 0.970711 -0.970711
v 0.500000 0.048550 -0.914251
v 0.500000 0.200000 -1.000000
v 0.500000 0.114220 -0.974885
v 0.370788 -0.200001 -0.500000
v 0.500000 -0.200001 -0.370788
v 0.462155 -0.200001 -0.462155
v 0.500000 -0.200001 0.370788
v 0.370788 -0.200001 0.500000
v 0.462155 -0.200001 0.462155
v -0.500000 0.900000 0.900000
v -0.453162 1.000000 0.800000
v -0.486282 0.970711 0.870711
v -0.431608 0.036677 0.832060
v -0.500000 0.215798 0.900000
v -0.479968 0.115370 0.880101
v -0.370788 -0.200001 0.500000
v -0.500000 -0.200001 0.370788
v -0.462155 -0.200001 0.462155
v -0.500000 0.900000 -1.000000
v -0.500000 1.000000 -0.900000
v -0.500000 0.970711 -0.970711
v -0.500000 0.048550 -0.914251
v -0.500000 0.200000 -1.000000
v -0.500000 0.114220 -0.974885
vt 0.344450 0.823350
vt 0.280549 0.823350
vt 0.280549 0.801019
vt 0.344450 0.801019
vt 0.330250 0.849033
vt 0.330250 0.870856
vt 0.344450 0.870856
vt 0.344450 0.849033
vt 0.344450 0.849507
vt 0.344450 0.870856
vt 0.330250 0.870856
vt 0.330250 0.849526
vt 0.325663 0.836563
vt 0.299336 0.836563
vt 0.284355 0.826041
vt 0.340644 0.826041
vt 0.348000 0.801019
vt 0.348000 0.823350
vt 0.348000 0.823350
vt 0.348000 0.801019
vt 0.330250 0.809120
vt 0.344956 0.825860
vt 0.344956 0.825860
vt 0.330250 0.809120
vt 0.345228 0.826041
vt 0.330250 0.836563
vt 0.330250 0.836563
vt 0.345228 0.826041
vt 0.325663 0.809120
vt 0.330250 0.825860
vt 0.340366 0.825860
vt 0.325663 0.809120
vt 0.340366 0.825860
vt 0.327822 0.825736
vt 0.344450 0.887695
vt 0.344450 0.887695
vt 0.330250 0.887695
vt 0.328587 0.887695
vt 0.276999 0.849033
vt 0.276999 0.870856
vt 0.276999 0.870856
vt 0.276999 0.849033
vt 0.344450 0.823350
vt 0.344450 0.801019
vt 0.280549 0.801019
vt 0.280549 0.823350
vt 0.299336 0.836563
vt 0.325663 0.836563
vt 0.340644 0.826041
vt 0.284355 0.826041
vt 0.294749 0.849526
vt 0.294749 0.870856
vt 0.280549 0.870856
vt 0.280549 0.849507
vt 0.299336 0.809120
vt 0.294749 0.825860
vt 0.280549 0.849033
vt 0.280549 0.870856
vt 0.294749 0.870856
vt 0.294749 0.849033
vt 0.316784 0.870856
vt 0.296412 0.887695
vt 0.312500 0.887695
vt 0.294749 0.887695
vt 0.297177 0.825736
vt 0.299336 0.809120
vt 0.284634 0.825860
vt 0.348000 0.849033
vt 0.348000 0.870856
vt 0.348000 0.870856
vt 0.348000 0.849033
vt 0.344450 0.784180
vt 0.280549 0.784180
vt 0.280549 0.784180
vt 0.344450 0.784180
vt 0.284634 0.825860
vt 0.280549 0.887695
vt 0.280549 0.887695
vt 0.294749 0.809120
vt 0.280043 0.825860
vt 0.280043 0.825860
vt 0.294749 0.809120
vt 0.279771 0.826041
vt 0.294749 0.836563
vt 0.294749 0.836563
vt 0.279771 0.826041
vt 0.308215 0.870856
vt 0.327822 0.834915
vt 0.312500 0.867791
vt 0.297177 0.834915
vt 0.278039 0.785093
vt 0.278500 0.785498
vt 0.280549 0.785093
vt 0.276999 0.787298
vt 0.278039 0.787298
vt 0.280549 0.787298
vt 0.280549 0.886782
vt 0.278500 0.886377
vt 0.278039 0.886782
vt 0.278039 0.870856
vt 0.344450 0.787298
vt 0.346960 0.787298
vt 0.346500 0.785498
vt 0.344450 0.785093
vt 0.348000 0.787298
vt 0.346960 0.785093
vt 0.344450 0.886782
vt 0.346500 0.886377
vt 0.346960 0.870856
vt 0.346960 0.886782
vt 0.280549 0.787298
vt 0.278039 0.787298
vt 0.278500 0.785498
vt 0.280549 0.785093
vt 0.276999 0.787298
vt 0.278039 0.785093
vt 0.280549 0.886782
vt 0.278500 0.886377
vt 0.278039 0.870856
vt 0.278039 0.886782
vt 0.346960 0.785093
vt 0.346500 0.785498
vt 0.344450 0.785093
vt 0.348000 0.787298
vt 0.346960 0.787298
vt 0.344450 0.787298
vt 0.344450 0.886782
vt 0.346500 0.886377
vt 0.346960 0.886782
vt 0.346960 0.870856
vt 0.284634 0.835039
vt 0.282193 0.834897
vt 0.279249 0.846303
vt 0.282591 0.846359
vt 0.280043 0.835039
vt 0.277891 0.846359
vt 0.278039 0.849033
vt 0.344956 0.835039
vt 0.342806 0.834897
vt 0.345750 0.846303
vt 0.347108 0.846359
vt 0.340366 0.835039
vt 0.342408 0.846359
vt 0.346960 0.849033
vt 0.344956 0.835039
vt 0.347108 0.846359
vt 0.345740 0.846372
vt 0.342806 0.834897
vt 0.346960 0.849270
vt 0.342327 0.846496
vt 0.340366 0.835039
vt 0.280043 0.835039
vt 0.282193 0.834897
vt 0.279259 0.846372
vt 0.277891 0.846359
vt 0.284634 0.835039
vt 0.282672 0.846496
vt 0.278039 0.849270
vt 0.344450 0.832322
vt 0.342547 0.851193
vt 0.345848 0.851258
vt 0.346960 0.832322
vt 0.340644 0.853483
vt 0.343166 0.853988
vt 0.345228 0.853483
vt 0.347188 0.851193
vt 0.348000 0.832322
vt 0.344450 0.832322
vt 0.346960 0.832322
vt 0.345848 0.851258
vt 0.342547 0.851193
vt 0.348000 0.832322
vt 0.347188 0.851193
vt 0.345228 0.853483
vt 0.343166 0.853988
vt 0.340644 0.853483
vt 0.280549 0.832322
vt 0.282452 0.851193
vt 0.279151 0.851258
vt 0.278039 0.832322
vt 0.284355 0.853483
vt 0.281833 0.853988
vt 0.279771 0.853483
vt 0.277811 0.851193
vt 0.276999 0.832322
vt 0.280549 0.832322
vt 0.278039 0.832322
vt 0.279151 0.851258
vt 0.282452 0.851193
vt 0.276999 0.832322
vt 0.277811 0.851193
vt 0.279771 0.853483
vt 0.281833 0.853988
vt 0.284355 0.853483
vt 0.309793 0.886782
vt 0.312500 0.885707
vt 0.315206 0.886782
vt 0.309968 0.869242
vt 0.315031 0.869242
vt 0.330250 0.886782
vt 0.346960 0.801019
vt 0.346960 0.823350
vt 0.346960 0.801019
vt 0.346960 0.823350
vt 0.295236 0.886782
vt 0.276999 0.823350
vt 0.276999 0.801019
vt 0.278039 0.801019
vt 0.278039 0.823350
vt 0.282193 0.825718
vt 0.296093 0.809120
vt 0.295461 0.846395
vt 0.330250 0.846359
vt 0.330250 0.835039
vt 0.276999 0.801019
vt 0.276999 0.823350
vt 0.278039 0.823350
vt 0.278039 0.801019
vt 0.296093 0.836563
vt 0.281833 0.826546
vt 0.329763 0.886782
vt 0.329539 0.846395
vt 0.294749 0.886782
vt 0.294749 0.846359
vt 0.294749 0.835039
vt 0.343166 0.826546
vt 0.328906 0.836563
vt 0.343166 0.826546
vt 0.328906 0.836563
vt 0.281833 0.826546
vt 0.296093 0.836563
vt 0.328906 0.809120
vt 0.342806 0.825718
vt 0.328906 0.809120
vt 0.342806 0.825718
vt 0.296093 0.809120
vt 0.282193 0.825718
vn 0.2142 0.1811 0.9599
vn -0.2142 0.1811 0.9599
vn -0.1794 -0.1794 0.9673
vn 0.1794 -0.1794 0.9673
vn 0.0000 -0.1419 -0.9899
vn 0.0000 0.1951 -0.9808
vn 0.1794 0.1794 -0.9673
vn 0.2148 -0.2026 -0.9554
vn 0.2086 -0.1731 0.9626
vn 0.1794 0.1794 0.9673
vn 0.0000 0.2055 0.9787
vn 0.0040 -0.1201 0.9927
vn 0.0715 0.8125 0.5785
vn -0.0715 0.8125 0.5785
vn -0.1271 0.7401 0.6604
vn 0.1271 0.7401 0.6604
vn 0.9673 -0.1794 -0.1794
vn 0.9599 0.1811 -0.2142
vn 0.9599 0.1811 0.2142
vn 0.9673 -0.1794 0.1794
vn 0.4722 -0.8797 -0.0557
vn 0.5775 -0.8090 -0.1098
vn 0.5845 -0.8035 0.1127
vn 0.4757 -0.8770 0.0672
vn 0.6604 0.7401 -0.1271
vn 0.5785 0.8125 -0.0715
vn 0.5785 0.8125 0.0715
vn 0.6604 0.7401 0.1271
vn 0.0557 -0.8797 -0.4722
vn 0.0000 -0.7758 -0.6310
vn 0.1098 -0.8090 -0.5775
vn 0.0729 -0.8399 0.5377
vn 0.1443 -0.7688 0.6230
vn 0.0321 -0.6839 0.7289
vn 0.1794 0.9673 0.1794
vn 0.1794 0.9673 -0.1794
vn 0.0000 0.9808 -0.1951
vn 0.0542 0.9904 0.1276
vn -0.9522 -0.2091 0.2228
vn -0.9673 0.1794 0.1794
vn -0.9673 0.1794 -0.1794
vn -0.9554 -0.2026 -0.2148
vn 0.2142 0.1811 -0.9599
vn 0.1794 -0.1794 -0.9673
vn -0.1794 -0.1794 -0.9673
vn -0.2142 0.1811 -0.9599
vn -0.0715 0.8125 -0.5785
vn 0.0715 0.8125 -0.5785
vn 0.1271 0.7401 -0.6604
vn -0.1271 0.7401 -0.6604
vn -0.0040 -0.1201 0.9927
vn -0.1794 0.1794 0.9673
vn -0.2086 -0.1731 0.9626
vn -0.0557 -0.8797 -0.4722
vn -0.2148 -0.2026 -0.9554
vn -0.1794 0.1794 -0.9673
vn 0.5097 -0.1628 0.8448
vn 0.6725 0.1940 0.7142
vn 0.5597 0.1005 0.8226
vn -0.0542 0.9904 0.1276
vn 0.0000 0.9202 0.3915
vn -0.0321 -0.6839 0.7289
vn -0.0729 -0.8399 0.5377
vn -0.1443 -0.7688 0.6230
vn 0.9554 -0.2026 -0.2148
vn 0.9673 0.1794 -0.1794
vn 0.9673 0.1794 0.1794
vn 0.9522 -0.2091 0.2228
vn 0.1794 -0.9673 0.1794
vn -0.1794 -0.9673 0.1794
vn -0.1794 -0.9673 -0.1794
vn 0.1794 -0.9673 -0.1794
vn -0.1098 -0.8090 -0.5775
vn -0.1794 0.9673 -0.1794
vn -0.1794 0.9673 0.1794
vn -0.4757 -0.8770 0.0672
vn -0.5845 -0.8035 0.1127
vn -0.5775 -0.8090 -0.1098
vn -0.4722 -0.8797 -0.0557
vn -0.6604 0.7401 0.1271
vn -0.5785 0.8125 0.0715
vn -0.5785 0.8125 -0.0715
vn -0.6604 0.7401 -0.1271
vn -0.6725 0.1940 0.7142
vn -0.5097 -0.1628 0.8448
vn -0.5597 0.1005 0.8226
vn -0.0000 -0.4104 0.9119
vn -0.3600 -0.9194 -0.1585
vn -0.3251 -0.8881 -0.3251
vn -0.1585 -0.9194 -0.3600
vn -0.9673 -0.1794 -0.1794
vn -0.9194 -0.1585 -0.3600
vn -0.8881 -0.3251 -0.3251
vn -0.9194 -0.3600 -0.1585
vn -0.1585 -0.3600 -0.9194
vn -0.3251 -0.3251 -0.8881
vn -0.3600 -0.1585 -0.9194
vn -0.1585 0.9194 -0.3600
vn -0.3251 0.8881 -0.3251
vn -0.6965 0.6965 -0.1726
vn -0.3600 0.1585 -0.9194
vn -0.3251 0.3251 -0.8881
vn -0.1585 0.3600 -0.9194
vn -0.8881 0.3251 -0.3251
vn -0.9194 0.1585 -0.3600
vn 0.3600 -0.1585 -0.9194
vn 0.3251 -0.3251 -0.8881
vn 0.1585 -0.3600 -0.9194
vn 0.9194 -0.3600 -0.1585
vn 0.8881 -0.3251 -0.3251
vn 0.9194 -0.1585 -0.3600
vn 0.1585 -0.9194 -0.3600
vn 0.3251 -0.8881 -0.3251
vn 0.3600 -0.9194 -0.1585
vn 0.1726 0.6965 -0.6965
vn 0.3251 0.3251 -0.8881
vn 0.3600 0.1585 -0.9194
vn 0.6965 0.6965 -0.1726
vn 0.3251 0.8881 -0.3251
vn 0.9194 0.1585 -0.3600
vn 0.8881 0.3251 -0.3251
vn -0.3600 -0.1585 0.9194
vn -0.3251 -0.3251 0.8881
vn -0.1585 -0.3600 0.9194
vn -0.9673 -0.1794 0.1794
vn -0.9194 -0.3600 0.1585
vn -0.8881 -0.3251 0.3251
vn -0.9194 -0.1585 0.3600
vn -0.1585 -0.9194 0.3600
vn -0.3251 -0.8881 0.3251
vn -0.3600 -0.9194 0.1585
vn -0.1585 0.3600 0.9194
vn -0.3251 0.3251 0.8881
vn -0.3600 0.1585 0.9194
vn -0.6965 0.6965 0.1726
vn -0.3251 0.8881 0.3251
vn -0.1585 0.9194 0.3600
vn -0.9194 0.1585 0.3600
vn -0.8881 0.3251 0.3251
vn 0.3600 -0.9194 0.1585
vn 0.3251 -0.8881 0.3251
vn 0.1585 -0.9194 0.3600
vn 0.9194 -0.1585 0.3600
vn 0.8881 -0.3251 0.3251
vn 0.9194 -0.3600 0.1585
vn 0.1585 -0.3600 0.9194
vn 0.3251 -0.3251 0.8881
vn 0.3600 -0.1585 0.9194
vn 0.1585 0.9194 0.3600
vn 0.3251 0.8881 0.3251
vn 0.6965 0.6965 0.1726
vn 0.3600 0.1585 0.9194
vn 0.3251 0.3251 0.8881
vn 0.1585 0.3600 0.9194
vn 0.8881 0.3251 0.3251
vn 0.9194 0.1585 0.3600
vn -0.3439 -0.8738 -0.3439
vn -0.5412 -0.6436 -0.5412
vn -0.1470 -0.5623 -0.8137
vn -0.8137 -0.5623 -0.1470
vn -0.6868 -0.2381 -0.6868
vn 0.3439 -0.8738 -0.3439
vn 0.5412 -0.6436 -0.5412
vn 0.8137 -0.5623 -0.1470
vn 0.1470 -0.5623 -0.8137
vn 0.6868 -0.2381 -0.6868
vn 0.8122 -0.5623 0.1553
vn 0.5345 -0.6289 0.5646
vn 0.3631 -0.8577 0.3641
vn 0.6802 -0.2280 0.6966
vn 0.1535 -0.5173 0.8419
vn -0.3631 -0.8577 0.3641
vn -0.5345 -0.6289 0.5646
vn -0.8122 -0.5623 0.1553
vn -0.1535 -0.5173 0.8419
vn -0.6802 -0.2280 0.6966
vn 0.1561 0.5050 -0.8489
vn 0.5712 0.5894 -0.5712
vn 0.6904 0.2162 -0.6904
vn 0.4079 0.8168 -0.4079
vn 0.8489 0.5050 -0.1561
vn 0.6904 0.2162 0.6904
vn 0.5712 0.5894 0.5712
vn 0.1561 0.5050 0.8489
vn 0.8489 0.5050 0.1561
vn 0.4079 0.8168 0.4079
vn -0.1561 0.5050 0.8489
vn -0.5712 0.5894 0.5712
vn -0.6904 0.2162 0.6904
vn -0.4079 0.8168 0.4079
vn -0.8489 0.5050 0.1561
vn -0.9599 0.1811 0.2142
vn -0.6904 0.2162 -0.6904
vn -0.5712 0.5894 -0.5712
vn -0.1561 0.5050 -0.8489
vn -0.9599 0.1811 -0.2142
vn -0.8489 0.5050 -0.1561
vn -0.4079 0.8168 -0.4079
vn -0.1845 0.8814 0.4348
vn 0.0000 0.7086 0.7056
vn 0.1845 0.8814 0.4348
vn -0.2544 -0.2229 0.9411
vn -0.0000 -0.0511 0.9987
vn -0.5162 0.1960 0.8337
vn 0.2544 -0.2229 0.9411
vn 0.5162 0.1960 0.8337
vn 0.0000 0.7071 -0.7071
vn -0.0000 0.9239 0.3827
vn -0.0000 0.3827 0.9239
vn -0.2762 -0.9206 -0.2762
vn -0.0267 -0.4643 0.8853
vn 0.0000 -0.4927 -0.8702
vn -0.3481 0.8704 -0.3481
vn 0.2677 0.9230 0.2765
vn 0.6396 0.3668 0.6756
vn 0.1625 -0.4037 0.9003
vn 0.3481 0.8704 -0.3481
vn 0.3481 0.8704 0.3481
vn -0.3481 0.8704 0.3481
vn 0.2762 -0.9206 -0.2762
vn 0.2986 -0.8990 0.3203
vn -0.2986 -0.8990 0.3203
vn -0.1625 -0.4037 0.9003
vn -0.6396 0.3668 0.6756
vn -0.2677 0.9230 0.2765
vn 0.0267 -0.4643 0.8853
usemtl block
s 1
f 102/1/1 111/2/2 29/3/3 45/4/4
f 151/5/5 147/6/6 22/7/7 68/8/8
f 77/9/9 51/10/10 132/11/11 136/12/12
f 157/13/13 165/14/14 112/15/15 105/16/16
f 16/17/17 96/18/18 103/19/19 44/20/20
f 154/21/21 66/22/22 75/23/23 156/24/24
f 95/25/25 154/26/26 156/27/27 104/28/28
f 153/29/29 150/30/30 67/31/31
f 157/32/32 78/33/33 135/34/34
f 50/35/35 23/36/36 148/37/37 133/38/38
f 87/39/39 38/40/40 10/41/41 59/42/42
f 93/43/43 15/44/44 3/45/45 120/46/46
f 129/47/47 153/48/48 94/49/49 123/50/50
f 163/51/51 159/52/11 36/53/52 86/54/53
f 129/55/54 171/56/30 150/30/30 153/29/29
f 60/57/55 9/58/56 168/59/6 172/60/5
f 136/12/57 132/11/58 141/61/59
f 172/60/5 168/59/6 147/6/6 151/5/5
f 133/38/38 160/62/60 138/63/61
f 133/38/38 148/37/37 169/64/37 160/62/60
f 157/32/32 135/34/34 162/65/62 165/66/63
f 165/66/63 162/65/62 85/67/64
f 69/68/65 24/69/66 52/70/67 76/71/68
f 43/72/69 31/73/70 1/74/71 17/75/72
f 129/55/54 57/76/73 171/56/30
f 160/62/60 169/64/37 8/77/74 37/78/75
f 166/79/76 84/80/77 58/81/78 130/82/79
f 113/83/80 166/84/81 130/85/82 122/86/83
f 159/52/84 163/51/85 139/87/86
f 135/88/34 140/89/87 162/90/62
f 1/74/71 4/91/88 5/92/89 7/93/90
f 2/94/91 6/95/92 5/92/93 4/91/94
f 3/96/45 7/93/95 5/92/96 6/95/97
f 8/77/74 11/97/98 12/98/99 14/99/100
f 9/58/56 13/100/101 12/98/102 11/97/103
f 10/41/41 14/99/100 12/98/104 13/100/105
f 15/101/44 18/102/106 19/103/107 21/104/108
f 16/105/17 20/106/109 19/103/110 18/102/111
f 17/75/72 21/104/112 19/103/113 20/106/114
f 22/7/7 25/107/115 26/108/116 28/109/117
f 23/36/36 27/110/118 26/108/119 25/107/115
f 24/69/66 28/109/120 26/108/121 27/110/118
f 29/111/3 32/112/122 33/113/123 35/114/124
f 30/115/125 34/116/126 33/113/127 32/112/128
f 31/73/70 35/114/129 33/113/130 34/116/131
f 36/53/52 39/117/132 40/118/133 42/119/134
f 37/78/75 41/120/135 40/118/136 39/117/137
f 38/40/40 42/119/138 40/118/139 41/120/135
f 43/72/69 46/121/140 47/122/141 49/123/142
f 44/124/20 48/125/143 47/122/144 46/121/145
f 45/126/4 49/123/146 47/122/147 48/125/148
f 50/35/35 53/127/149 54/128/150 56/129/151
f 51/10/10 55/130/152 54/128/153 53/127/154
f 52/70/67 56/129/151 54/128/155 55/130/156
f 57/131/73 61/132/157 62/133/158 65/134/159
f 58/135/78 63/136/160 62/133/158 61/132/157
f 59/42/42 64/137/161 62/133/158 63/136/160
f 60/57/55 65/134/159 62/133/158 64/137/161
f 66/138/22 70/139/162 71/140/163 74/141/164
f 67/142/31 72/143/165 71/140/163 70/139/162
f 68/8/8 73/144/166 71/140/163 72/143/165
f 69/68/65 74/141/164 71/140/163 73/144/166
f 75/145/23 79/146/167 80/147/168 83/148/169
f 76/71/68 81/149/170 80/147/168 79/146/167
f 77/9/9 82/150/171 80/147/168 81/149/170
f 78/151/33 83/148/169 80/147/168 82/150/171
f 84/152/77 88/153/172 89/154/173 92/155/174
f 85/156/64 90/157/175 89/154/173 88/153/172
f 86/54/53 91/158/176 89/154/173 90/157/175
f 87/39/39 92/155/174 89/154/173 91/158/176
f 93/159/43 97/160/177 98/161/178 101/162/179
f 94/163/49 99/164/180 98/161/178 97/160/177
f 95/165/25 100/166/181 98/161/178 99/164/180
f 96/167/18 101/162/179 98/161/178 100/166/181
f 102/168/1 106/169/182 107/170/183 110/171/184
f 103/172/19 108/173/185 107/170/183 106/169/182
f 104/174/28 109/175/186 107/170/183 108/173/185
f 105/176/16 110/171/184 107/170/183 109/175/186
f 111/177/2 115/178/187 116/179/188 119/180/189
f 112/181/15 117/182/190 116/179/188 115/178/187
f 113/183/80 118/184/191 116/179/188 117/182/190
f 114/185/192 119/180/189 116/179/188 118/184/191
f 120/186/46 124/187/193 125/188/194 128/189/195
f 121/190/196 126/191/197 125/188/194 124/187/193
f 122/192/83 127/193/198 125/188/194 126/191/197
f 123/194/50 128/189/195 125/188/194 127/193/198
f 138/63/61 142/195/199 143/196/200 146/197/201
f 139/87/86 144/198/202 143/196/203 142/195/204
f 140/89/87 145/199/205 143/196/203 144/198/202
f 141/61/59 146/197/206 143/196/203 145/199/205
f 148/37/37 23/36/36 25/107/115 149/200/207
f 149/200/207 25/107/115 22/7/7 147/6/6
f 96/18/18 16/17/17 18/201/111 101/202/179
f 101/202/179 18/201/106 15/44/44 93/43/43
f 43/72/69 17/75/72 20/106/114 46/121/140
f 46/121/145 20/106/109 16/105/17 44/124/20
f 23/36/36 50/35/35 56/129/151 27/110/118
f 27/110/118 56/129/151 52/70/67 24/69/66
f 102/1/1 45/4/4 48/203/148 106/204/182
f 106/204/182 48/203/143 44/20/20 103/19/19
f 160/62/60 37/78/75 39/117/137 161/205/208
f 161/205/209 39/117/132 36/53/52 159/52/11
f 114/206/192 30/207/125 32/208/128 119/209/189
f 119/209/189 32/208/122 29/3/3 111/2/2
f 1/74/71 31/73/70 34/116/131 4/91/88
f 4/91/94 34/116/126 30/115/125 2/94/91
f 37/78/75 8/77/74 14/99/100 41/120/135
f 41/120/135 14/99/100 10/41/41 38/40/40
f 130/82/79 58/81/78 61/210/157 131/211/210
f 131/211/210 61/210/157 57/76/73 129/55/54
f 87/39/39 59/42/42 63/136/160 92/155/174
f 92/155/174 63/136/160 58/135/78 84/152/77
f 163/51/51 86/54/53 90/157/175 164/212/211
f 164/212/211 90/157/175 85/156/64 162/90/62
f 69/68/65 76/71/68 79/146/167 74/141/164
f 74/141/164 79/146/167 75/145/23 66/138/22
f 151/5/5 68/8/8 72/143/165 152/213/212
f 152/213/212 72/143/165 67/142/31 150/214/30
f 59/42/42 10/41/41 13/100/105 64/137/161
f 64/137/161 13/100/101 9/58/56 60/57/55
f 24/69/66 69/68/65 73/144/166 28/109/120
f 28/109/117 73/144/166 68/8/8 22/7/7
f 51/10/10 77/9/9 81/149/170 55/130/152
f 55/130/156 81/149/170 76/71/68 52/70/67
f 38/40/40 87/39/39 91/158/176 42/119/138
f 42/119/134 91/158/176 86/54/53 36/53/52
f 2/215/91 121/216/196 124/217/193 6/218/92
f 6/218/97 124/217/193 120/46/46 3/45/45
f 95/165/25 104/174/28 108/173/185 100/166/181
f 100/166/181 108/173/185 103/172/19 96/167/18
f 113/183/80 122/192/83 126/191/197 118/184/191
f 118/184/191 126/191/197 121/190/196 114/185/192
f 122/86/83 130/85/82 131/219/213 127/220/198
f 127/220/198 131/219/213 129/47/47 123/50/50
f 133/38/38 138/63/61 146/197/201 134/221/214
f 134/221/215 146/197/206 141/61/59 132/11/58
f 136/12/57 141/61/59 145/199/205 137/222/216
f 137/222/216 145/199/205 140/89/87 135/88/34
f 169/64/37 148/37/37 149/200/207 170/223/207
f 170/223/207 149/200/207 147/6/6 168/59/6
f 172/60/5 151/5/5 152/213/212 173/224/212
f 173/224/212 152/213/212 150/214/30 171/225/30
f 17/75/72 1/74/71 7/93/90 21/104/112
f 21/104/108 7/93/95 3/96/45 15/101/44
f 105/176/16 112/181/15 115/178/187 110/171/184
f 110/171/184 115/178/187 111/177/2 102/168/1
f 8/77/74 169/64/37 170/223/207 11/97/98
f 11/97/103 170/223/207 168/59/6 9/58/56
f 31/73/70 43/72/69 49/123/142 35/114/129
f 35/114/124 49/123/146 45/126/4 29/111/3
f 60/57/55 172/60/5 173/224/212 65/134/159
f 65/134/159 173/224/212 171/225/30 57/131/73
f 123/194/50 94/163/49 97/160/177 128/189/195
f 128/189/195 97/160/177 93/159/43 120/186/46
f 154/26/26 95/25/25 99/226/180 155/227/217
f 155/227/217 99/226/180 94/49/49 153/48/48
f 157/13/13 105/16/16 109/228/186 158/229/218
f 158/229/218 109/228/186 104/28/28 156/27/27
f 166/84/81 113/83/80 117/230/190 167/231/219
f 167/231/219 117/230/190 112/15/15 165/14/14
f 66/22/22 154/21/21 155/232/220 70/233/162
f 70/233/162 155/232/220 153/29/29 67/31/31
f 78/33/33 157/32/32 158/234/221 83/235/169
f 83/235/169 158/234/221 156/24/24 75/23/23
f 84/80/77 166/79/76 167/236/222 88/237/172
f 88/237/172 167/236/222 165/66/63 85/67/64
f 162/90/62 140/89/87 144/198/202 164/212/223
f 164/212/223 144/198/202 139/87/86 163/51/85
f 159/52/84 139/87/86 142/195/204 161/205/224
f 161/205/225 142/195/199 138/63/61 160/62/60
f 50/35/35 133/38/38 134/221/208 53/127/149
f 53/127/154 134/221/209 132/11/11 51/10/10
f 77/9/9 136/12/12 137/222/226 82/150/171
f 82/150/171 137/222/226 135/88/34 78/151/33
f 30/207/125 114/206/192 121/216/196 2/215/91
